<svg clip-rule="evenodd" fill-rule="evenodd" stroke-linejoin="round" stroke-miterlimit="2" viewBox="0 0 510 510" xmlns="http://www.w3.org/2000/svg"><g><path d="m17.436 424.576v-108.664c0-2.122.843-4.157 2.343-5.657 1.501-1.5 3.536-2.343 5.657-2.343h47.007l108.91-58.485c1.55-.832 3.423-.789 4.932.114 1.51.903 2.434 2.532 2.434 4.291v232.824c0 1.759-.924 3.388-2.434 4.291-1.509.903-3.382.946-4.932.114l-108.91-58.485h-47.007c-2.121 0-4.156-.843-5.657-2.343-1.5-1.501-2.343-3.536-2.343-5.657zm429.876-408.936c.794.34 1.474.851 2.155 1.531l40.942 40.942c.68.624 1.191 1.361 1.531 2.155h-40.942c-2.042 0-3.686-1.644-3.686-3.686z" fill="#9bc9ff"/><path d="m256.094 89.708h-102.484c-19.322 0-35.009 15.687-35.009 35.009v108.686c0 4.415-3.585 8-8 8s-8-3.585-8-8v-108.686c0-28.152 22.856-51.009 51.009-51.009h102.484l-5.938-5.937c-3.122-3.122-3.122-8.192 0-11.314s8.192-3.122 11.314 0l19.594 19.594c3.124 3.125 3.124 8.19 0 11.314l-19.594 19.594c-3.122 3.123-8.192 3.123-11.314 0-3.122-3.122-3.122-8.191 0-11.313zm73.065 354.586 5.937 5.938c3.123 3.122 3.123 8.191 0 11.313-3.122 3.122-8.191 3.122-11.313 0l-19.595-19.594c-3.124-3.124-3.124-8.189 0-11.314l19.595-19.594c3.122-3.122 8.191-3.122 11.313 0 3.123 3.122 3.123 8.192 0 11.314l-5.937 5.937h102.484c19.322 0 35.009-15.687 35.009-35.008v-108.686c0-4.415 3.584-8 8-8 4.415 0 8 3.585 8 8v108.686c0 28.152-22.856 51.008-51.009 51.008zm-258.743-144.382 114.502-61.489c2.48-1.331 5.476-1.262 7.891.182 2.415 1.445 3.894 4.052 3.894 6.866v249.545c0 2.814-1.479 5.421-3.894 6.866-2.415 1.444-5.411 1.513-7.891.182l-114.502-61.489h-52.995c-4.419 0-8-3.581-8-8v-124.663c0-4.419 3.581-8 8-8zm2.012 16h-47.007v108.663h47.007c1.321 0 2.621.327 3.785.952 0 0 104.49 56.112 104.49 56.112v-222.791l-104.49 56.112c-1.164.624-2.464.952-3.785.952zm243.819-308.928h128.044c4.19 0 7.888 1.467 10.885 4.554l40.896 40.896c2.976 2.976 4.507 6.673 4.507 10.839v174.883c0 8.446-6.9 15.347-15.346 15.347h-168.986c-8.446 0-15.346-6.901-15.346-15.347v-215.825c0-8.447 6.9-15.347 15.346-15.347zm123.018 16.063h-122.301v214.393h167.552v-169.141h-33.534c-6.49 0-11.717-5.228-11.717-11.717zm33.893 29.189-17.83-17.831v17.831zm-123.851 109.685c-4.432 0-8.031-3.598-8.031-8.031s3.599-8.032 8.031-8.032h102.866c4.433 0 8.031 3.599 8.031 8.032s-3.598 8.031-8.031 8.031zm0-47.349c-4.432 0-8.031-3.599-8.031-8.032s3.599-8.031 8.031-8.031h102.866c4.433 0 8.031 3.598 8.031 8.031s-3.598 8.032-8.031 8.032zm0 94.699c-4.432 0-8.031-3.598-8.031-8.031s3.599-8.032 8.031-8.032h102.866c4.433 0 8.031 3.599 8.031 8.032s-3.598 8.031-8.031 8.031zm0-142.049c-4.432 0-8.031-3.599-8.031-8.032s3.599-8.031 8.031-8.031h64.646c4.432 0 8.031 3.598 8.031 8.031s-3.599 8.032-8.031 8.032zm-134.541 263.92c-3.26-2.978-3.488-8.042-.51-11.302s8.042-3.488 11.302-.51c14.254 13.023 23.011 31.041 23.011 50.915 0 19.872-8.757 37.892-23.011 50.914-3.26 2.978-8.324 2.75-11.302-.51s-2.749-8.324.51-11.302c10.961-10.014 17.804-23.821 17.804-39.102 0-15.282-6.843-29.089-17.804-39.103zm42.645 119.118c-3.26 2.978-8.324 2.75-11.302-.51-2.978-3.259-2.75-8.324.509-11.302 19.112-17.462 30.993-41.558 30.993-68.203 0-26.648-11.881-50.742-30.993-68.205-3.259-2.978-3.487-8.042-.509-11.302 2.978-3.259 8.042-3.488 11.302-.51 22.405 20.472 36.2 48.778 36.2 80.017 0 31.236-13.795 59.544-36.2 80.015z" fill="#69f"/></g></svg>